<?xml version="1.0" standalone="yes"?>
<svg xmlns="http://www.w3.org/2000/svg" width="500" height="500">
<path style="fill:#030311; stroke:none;" d="M0 0L0 500L500 500L500 0L0 0z"/>
<path style="fill:#249888; stroke:none;" d="M256 3L257 4L256 3z"/>
<path style="fill:#08f5f8; stroke:none;" d="M202 151C186.519 144.133 189.752 124.742 194.989 112C196.361 108.663 202.318 97.7666 195.852 96.4082C184.093 93.9377 169.491 107.905 162.468 115.424C153.883 124.615 155.926 137.564 153.482 149C149.294 168.6 138.219 185.514 136.171 206C135.501 212.694 135.442 220.375 136.615 227C137.244 230.553 139.524 235.295 137.592 238.7C128.126 255.38 121.904 235.328 120 227C99.6046 235.281 105.995 277.985 119 290L119 291C105.853 303.016 116.122 307.122 119.127 320C120.111 324.215 119.172 335.642 117.972 339.848C115.391 348.897 101.139 330.791 96.8542 339.152C87.5312 357.344 105.027 383.391 119.039 393.329C124.5 397.203 134.281 399.292 138.397 404.39C141.473 408.202 140.744 416.285 141.615 421C143.035 428.684 146.401 435.16 150 442C156.461 440.665 156.769 435.259 161.468 431.603C164.947 428.897 173.872 429.245 177.956 430.434C181.619 431.5 182.965 434.823 184.46 438.001C189.295 448.278 206.208 475.779 212.427 454C213.287 450.989 214.294 448.052 215 445L217 445C222.634 472.223 251.394 494.361 278 477.034C289.552 469.511 294.911 457.565 299 445L300 445C301.839 449.777 302.34 457.88 305.728 461.667C309.298 465.658 314.341 461.108 316.996 458.331C323.862 451.15 327.66 437.274 335.214 431.742C343.097 425.969 360.533 431.634 360 442C378.945 439.052 368.592 412.721 378.317 403.648C382.782 399.483 389.946 397.7 395 394.137C408.303 384.757 429.305 357.287 418.682 339.152C414.522 332.05 407.176 342.363 402.059 341.828C397.269 341.327 395.871 324.487 396.248 320.424C396.781 314.684 403.463 310.967 404.373 305C405.298 298.94 398.668 295.457 398.947 290C399.161 285.812 403.892 281.143 405.251 277C409.456 264.179 410.797 239.876 400.367 229.337C398.794 227.747 396.717 227.284 395.317 229.337C390.805 235.953 395.523 251.011 382.019 242.647C380.14 241.483 378.401 240.102 377.618 237.957C374.621 229.749 379.712 215.231 378.83 206C377.124 188.144 369.567 172.83 364.348 156C361.328 146.261 362.576 135.584 359.401 126C354.097 109.984 333.57 96.353 317 96C317.117 109.903 325.794 121.474 323.7 136C323.191 139.528 321.868 147.299 317.895 148.654C315.074 149.617 314.476 145.892 314.537 143.995C314.775 136.597 316.01 130.502 314.866 123C312.242 105.793 299.347 94.2908 289.478 81C282.522 71.6315 278.316 61.0288 274.745 50C271.35 39.5135 269.513 28.6738 266.87 18C265.76 13.519 264.221 7.23682 259.899 4.71219C255.528 2.15906 252.412 7.69504 250.904 11.0008C246.803 19.9942 246.592 30.5898 243.659 40C239.993 51.7602 237.456 63.5246 230.655 74C221.331 88.3618 207.432 100.327 202.219 117C198.514 128.852 201.489 139.138 202 151z"/>
<path style="fill:#249888; stroke:none;" d="M259 3L260 4L259 3M260 4L261 5L260 4M261 5L262 6L261 5M253 6L254 7L253 6M262 6L263 7L262 6M252 7L253 8L252 7M263 8L264 9L263 8M251 9L252 10L251 9M257.667 10.3333L258.333 10.6667L257.667 10.3333M264 10L265 11L264 10M250 11L251 12L250 11z"/>
<path style="fill:#030311; stroke:none;" d="M257 11C252.324 33.6534 247.223 57.7593 235.572 78C228.304 90.6261 215.924 99.5696 210.15 113C206.169 122.261 200.767 144.055 210 152L208 186C194.368 175.053 183.091 146.565 184.39 129C185.081 119.645 189.134 110.808 192 102C181.611 105.781 170.211 113.323 164.483 123C160.545 129.652 160.678 138.53 159.573 146C156.957 163.673 154.323 181.143 157.464 199C159.206 208.906 167.581 223.227 165.591 233C164.121 240.217 153.433 251.091 146 252.019C141.502 252.581 136.678 250.042 132 250L134.191 261L132 290C126.651 291.102 115.632 299.685 118.238 306C120.247 310.871 126.107 313.368 126.678 319C127.564 327.731 123.857 334.623 126 344C114.933 348.027 113.071 347.497 102 344C102 362.031 107.141 377.899 123 388.304C128.872 392.156 139.855 394.616 144.397 399.56C146.999 402.394 145.82 407.492 146.171 411C146.88 418.098 148.835 425.229 151 432L169.579 414.557L183.44 420.509L190.373 436L203 455L205 455C209.432 446.558 213.681 439.099 222 434C216.149 457.219 244.21 481 266 475.236C284.993 470.212 291.659 451.23 295 434C302.055 439.793 306.662 446.528 310 455L332.394 420.278L349 413C350.454 420.206 357.869 428.13 365 430C367.991 420.647 371.984 408.404 368 399C396.718 394.759 414 370.616 414 343C406.568 347.121 394.527 353.271 391.473 340C390.646 336.406 392.268 332.675 391.667 329C391.077 325.383 388.262 321.736 389.302 318C390.9 312.265 397.781 308.674 396.654 302.001C395.533 295.365 387.918 293.505 385.603 287.826C382.142 279.339 383.984 267.331 381 258C389.707 255.099 376.84 245.725 374 242L372 242L374 254C364.943 251.047 350.647 243.091 349.113 232.424C347.761 223.023 355.613 209.477 357.389 200C360.641 182.644 359.169 167.27 356.285 150C352.762 128.902 348.498 108.354 324 102C326.443 110.949 330.113 119.581 330.624 129C331.742 149.603 319.961 172.038 306 186C307.772 176.453 304.238 167.97 304.959 159C306.28 142.58 313.162 130.436 306.127 114C297.911 94.8012 280.708 82.0048 272.604 62C268.062 50.7871 265.03 38.7983 262.424 27C261.31 21.9542 261.339 14.2879 257 11z"/>
<path style="fill:#249888; stroke:none;" d="M256.333 12.6667L256.667 13.3333L256.333 12.6667M259.333 12.6667L259.667 13.3333L259.333 12.6667M265 12L266 13L265 12M249.333 13.6667L249.667 14.3333L249.333 13.6667M255 15L255 18L256 18L255 15M266.333 15.6667L266.667 16.3333L266.333 15.6667M260.333 16.6667L260.667 17.3333L260.333 16.6667M248.333 17.6667L248.667 18.3333L248.333 17.6667M267.333 19.6667L267.667 20.3333L267.333 19.6667M254.333 20.6667L254.667 21.3333L254.333 20.6667M247 21L247 24L248 24L247 21M261.333 21.6667L261.667 22.3333L261.333 21.6667M268 23L268 26L269 26L268 23M253 24L253 27L254 27L253 24M262 25L262 28L263 28L262 25M246.333 27.6667L246.667 28.3333L246.333 27.6667M269.333 28.6667L269.667 29.3333L269.333 28.6667M252.333 29.6667L252.667 30.3333L252.333 29.6667M263.333 30.6667L263.667 31.3333L263.333 30.6667M245 31L245 34L246 34L245 31M251 32L251 35L252 35L251 32M270 32L270 35L271 35L270 32M264 33L264 36L265 36L264 33M244.333 36.6667L244.667 37.3333L244.333 36.6667M271 36L271 39L272 39L271 36M250.333 37.6667L250.667 38.3333L250.333 37.6667M265 37L265 40L266 40L265 37M243.333 39.6667L243.667 40.3333L243.333 39.6667M249.333 41.6667L249.667 42.3333L249.333 41.6667M266 41L266 44L267 44L266 41M272.333 41.6667L272.667 42.3333L272.333 41.6667M242 43L243 44L242 43M248.333 45.6667L248.667 46.3333L248.333 45.6667M267.333 45.6667L267.667 46.3333L267.333 45.6667M273 45L274 46L273 45M241.333 46.6667L241.667 47.3333L241.333 46.6667M247.333 48.6667L247.667 49.3333L247.333 48.6667M268 48L268 51L269 51L268 48M274.333 48.6667L274.667 49.3333L274.333 48.6667M240 50L241 51L240 50M246 52L247 53L246 52M269.333 52.6667L269.667 53.3333L269.333 52.6667M275 52L276 53L275 52M239.333 53.6667L239.667 54.3333L239.333 53.6667M245.333 54.6667L245.667 55.3333L245.333 54.6667M276 54L277 55L276 54M270.333 55.6667L270.667 56.3333L270.333 55.6667M238 57L239 58L238 57M244.333 57.6667L244.667 58.3333L244.333 57.6667M277 57L278 58L277 57M271.333 58.6667L271.667 59.3333L271.333 58.6667M237.333 59.6667L237.667 60.3333L237.333 59.6667M243 60L244 61L243 60M272.333 60.6667L272.667 61.3333L272.333 60.6667M278 60L279 61L278 60M236.333 62.6667L236.667 63.3333L236.333 62.6667M279.333 62.6667L279.667 63.3333L279.333 62.6667M242 63L243 64L242 63M273.333 63.6667L273.667 64.3333L273.333 63.6667M235.333 64.6667L235.667 65.3333L235.333 64.6667M241 65L242 66L241 65M280 65L281 66L280 65M274 66L275 67L274 66M234 67L235 68L234 67M240.333 67.6667L240.667 68.3333L240.333 67.6667M281.333 67.6667L281.667 68.3333L281.333 67.6667M275 68L276 69L275 68M233 69L234 70L233 69M239 70L240 71L239 70M276 70L277 71L276 70M282 70L283 71L282 70M232 71L233 72L232 71M231 72L232 73L231 72M238 72L239 73L238 72M277 72L278 73L277 72M284 73L285 74L284 73M230 74L231 75L230 74M237 74L238 75L237 74M278 74L279 75L278 74M229 75L230 76L229 75M285 75L286 76L285 75M236 76L237 77L236 76M279 76L280 77L279 76M286 76L287 77L286 76M228 77L229 78L228 77M280.333 77.6667L280.667 78.3333L280.333 77.6667M227 78L228 79L227 78M235 78L236 79L235 78M287 78L288 79L287 78M234 79L235 80L234 79M288 79L289 80L288 79M226 80L227 81L226 80M281 80L282 81L281 80M225 81L226 82L225 81M233 81L234 82L233 81M289 81L290 82L289 81M282 82L283 83L282 82M290 82L291 83L290 82M224 83L225 84L224 83M232 83L233 84L232 83M283 83L284 84L283 83M223 84L224 85L223 84M231 84L232 85L231 84M222 85L223 86L222 85M230 85L231 86L230 85M284 85L285 86L284 85M221 86L222 87L221 86M285 86L286 87L285 86M293 86L294 87L293 86M229 87L230 88L229 87M286 87L287 88L286 87M294 87L295 88L294 87M228 88L229 89L228 88M287 88L288 89L287 88M295 88L296 89L295 88M219 89L220 90L219 89M227 89L228 90L227 89M218 90L219 91L218 90M288 90L289 91L288 90M226 91L227 92L226 91M289 91L290 92L289 91M297 91L298 92L297 91M217 92L218 93L217 92M225 92L226 93L225 92M290 92L291 93L290 92M298 92L299 93L298 92M216 93L217 94L216 93M224 93L225 94L224 93M291 93L292 94L291 93M299 93L300 94L299 93M215 94L216 95L215 94M292 94L293 95L292 94M300 94L301 95L300 94M194 95L194 96L197 96L194 95M214 95L215 96L214 95M293 95L294 96L293 95M301 95L302 96L301 95M190 96L190 97L193 97L190 96M213 96L214 97L213 96M221 96L222 97L221 96M294 96L295 97L294 96M316 96L316 102L317 102L316 96M323.667 96.3333L324.333 96.6667L323.667 96.3333M187.667 97.3333L188.333 97.6667L187.667 97.3333M212 97L213 98L212 97M220 97L221 98L220 97M295 97L296 98L295 97M326.667 97.3333L327.333 97.6667L326.667 97.3333M184.667 98.3333L185.333 98.6667L184.667 98.3333M219 98L220 99L219 98M296 98L297 99L296 98M303 98L304 99L303 98M329.667 98.3333L330.333 98.6667L329.667 98.3333M182 99L183 100L182 99M199.333 99.6667L199.667 100.333L199.333 99.6667M211 99L212 100L211 99M218 99L219 100L218 99M297 99L298 100L297 99M304 99L305 100L304 99M332 99L333 100L332 99M180 100L181 101L180 100M210 100L211 101L210 100M298 100L299 101L298 100M334 100L335 101L334 100M190 101L190 102L193 103L190 101M209 101L210 102L209 101M217 101L218 102L217 101M324.667 101.333L325.333 101.667L324.667 101.333M336 101L337 102L336 101M177 102L178 103L177 102M189 102L190 103L189 102M216 102L217 103L216 102M306 102L307 103L306 102M323 102L324 103L323 102M176 103L177 104L176 103M187.667 103.333L188.333 103.667L187.667 103.333M191 103L191 106L192 106L191 103M198 103L199 104L198 103M208 103L209 104L208 103M215 103L216 104L215 103M300 103L301 104L300 103M317.333 103.667L317.667 104.333L317.333 103.667M328 103L329 104L328 103M339 103L340 104L339 103M174 104L175 105L174 104M186 104L187 105L186 104M207 104L208 105L207 104M214 104L215 105L214 104M301 104L302 105L301 104M324 104L325 105L324 104M329 104L330 105L329 104M340 104L341 105L340 104M173 105L174 106L173 105M184 105L185 106L184 105M197.333 105.667L197.667 106.333L197.333 105.667M213 105L214 106L213 105M308 105L309 106L308 105M331 105L332 106L331 105M341 105L342 106L341 105M172 106L173 107L172 106M182 106L183 107L182 106M190.333 106.667L190.667 107.333L190.333 106.667M206 106L207 107L206 106M302 106L303 107L302 106M318 106L319 107L318 106M325.333 106.667L325.667 107.333L325.333 106.667M332 106L333 107L332 106M343 106L344 107L343 106M170 107L171 108L170 107M180 107L181 108L180 107M212 107L213 108L212 107M309 107L310 108L309 107M334 107L335 108L334 107M344 107L345 108L344 107M169 108L170 109L169 108M178 108L179 109L178 108M196 108L197 109L196 108M205 108L206 109L205 108M303 108L304 109L303 108M319.333 108.667L319.667 109.333L319.333 108.667M335 108L336 109L335 108M345 108L346 109L345 108M168 109L169 110L168 109M177 109L178 110L177 109M189 109L190 110L189 109M211 109L212 110L211 109M304.333 109.667L304.667 110.333L304.333 109.667M310 109L311 110L310 109M326.333 109.667L326.667 110.333L326.333 109.667M336.667 109.333L337.333 109.667L336.667 109.333M167 110L168 111L167 110M176 110L177 111L176 110M195.333 110.667L195.667 111.333L195.333 110.667M204.333 110.667L204.667 111.333L204.333 110.667M339 110L340 111L339 110M166 111L167 112L166 111M175 111L176 112L175 111M210.333 111.667L210.667 112.333L210.333 111.667M311 111L312 112L311 111M320 111L321 112L320 111M340 111L341 112L340 111M349 111L350 112L349 111M165 112L166 113L165 112M174 112L175 113L174 112M188 112L189 113L188 112M305 112L306 113L305 112M327 112L327 115L328 115L327 112M341 112L342 113L341 112M350 112L351 113L350 112M164 113L165 114L164 113M173 113L174 114L173 113M194 113L195 114L194 113M203 113L204 114L203 113M312.333 113.667L312.667 114.333L312.333 113.667M321.333 113.667L321.667 114.333L321.333 113.667M351 113L352 114L351 113M163 114L164 115L163 114M171 114L172 115L171 114M187.333 114.667L187.667 115.333L187.333 114.667M209 114L210 115L209 114M306 114L307 115L306 114M343 114L344 115L343 114M352 114L353 115L352 114M170 115L171 116L170 115M193 115L194 116L193 115M202 115L203 116L202 115M161 116L162 117L161 116M169 116L170 117L169 116M208 116L209 117L208 116M307.333 116.667L307.667 117.333L307.333 116.667M313 116L314 117L313 116M328 116L328 119L329 119L328 116M346 116L347 117L346 116M160 117L161 118L160 117M168 117L169 118L168 117M186 117L186 120L187 120L186 117M192 117L192 120L193 120L192 117M322.333 117.667L322.667 118.333L322.333 117.667M167 118L168 119L167 118M201.333 118.667L201.667 119.333L201.333 118.667M355 118L356 119L355 118M166 119L167 120L166 119M207 119L208 120L207 119M348 119L349 120L348 119M158 120L159 121L158 120M308 120L309 121L308 120M314 120L315 121L314 120M349 120L350 121L349 120M165 121L166 122L165 121M200 121L200 125L201 125L200 121M206.333 121.667L206.667 122.333L206.333 121.667M329 121L329 125L330 125L329 121M350 121L351 122L350 121M357 121L358 122L357 121M157 122L158 123L157 122M164 122L165 123L164 122M191 122L191 125L192 125L191 122M309 122L309 125L310 125L309 122M323 122L323 127L324 127L323 122M185.333 123.667L185.667 124.333L185.333 123.667M351 123L352 124L351 123M358 123L359 124L358 123M163 124L164 125L163 124M352.333 124.667L352.667 125.333L352.333 124.667M156 125L157 126L156 125M205 125L205 128L206 128L205 125M315 125L315 128L316 128L315 125M359 125L360 126L359 125M162 126L163 127L162 126M184 127L184 133L185 133L184 127M310 127L310 135L311 135L310 127M330 127L330 133L331 133L330 127M353.333 127.667L353.667 128.333L353.333 127.667M161 128L161 133L162 133L161 128M190 128L190 134L191 134L190 128M155 129L155 135L156 135L155 129M360.333 129.667L360.667 130.333L360.333 129.667M199 130L199 135L200 135L199 130M354 131L354 137L355 137L354 131M323 134L323 138L324 138L323 134M191 135L191 138L192 138L191 135M205 135L205 138L206 138L205 135M160 136L160 139L161 139L160 136M329 136L329 140L330 140L329 136M185 137L185 140L186 140L185 137M309 137L309 141L310 141L309 137M315 137L315 140L316 140L315 137M154.333 138.667L154.667 139.333L154.333 138.667M361.333 139.667L361.667 140.333L361.333 139.667M192 140L192 143L193 143L192 140M200 140L200 143L201 143L200 140M206 140L206 143L207 143L206 140M322.333 140.667L322.667 141.333L322.333 140.667M159 141L159 147L160 147L159 141M355 141L355 145L356 145L355 141M186 142L186 145L187 145L186 142M308 142L308 145L309 145L308 142M193.333 143.667L193.667 144.333L193.333 143.667M314 143L314 148L315 148L314 143M328 143L328 146L329 146L328 143M153 144L153 150L154 150L153 144M321 144L322 145L321 144M194 145L195 146L194 145M201 145L201 148L202 148L201 145M187.333 146.667L187.667 147.333L187.333 146.667M207 146L207 151L208 151L207 146M320 146L321 147L320 146M327 146L327 149L328 149L327 146M362.333 146.667L362.667 147.333L362.333 146.667M195 147L196 148L195 147M307 147L307 150L308 150L307 147M196 148L197 149L196 148M319 148L320 149L319 148M356 148L356 152L357 152L356 148M188 149L188 152L189 152L188 149M198.667 149.333L199.333 149.667L198.667 149.333M315.667 149.333L316.333 149.667L315.667 149.333M318 149L319 150L318 149M200.667 150.333L201.333 150.667L200.667 150.333M326.333 150.667L326.667 151.333L326.333 150.667M152.333 151.667L152.667 152.333L152.333 151.667M158.333 151.667L158.667 152.333L158.333 151.667M306 151L306 154L307 154L306 151M363 151L363 154L364 154L363 151M192.333 152.667L192.667 153.333L192.333 152.667M208 152L208 154L210 152L208 152M189.333 153.667L189.667 154.333L189.333 153.667M325.333 153.667L325.667 154.333L325.333 153.667M151.333 154.667L151.667 155.333L151.333 154.667M209.333 154.667L209.667 155.333L209.333 154.667M357.333 154.667L357.667 155.333L357.333 154.667M157 155L157 158L158 158L157 155M190 156L191 157L190 156M305.333 156.667L305.667 157.333L305.333 156.667M324 156L325 157L324 156M364 156L365 157L364 156M150 157L151 158L150 157M210 157L210 164L211 164L210 157M191.333 158.667L191.667 159.333L191.333 158.667M193.333 158.667L193.667 159.333L193.333 158.667M323.333 158.667L323.667 159.333L323.333 158.667M365.333 158.667L365.667 159.333L365.333 158.667M149.333 159.667L149.667 160.333L149.333 159.667M304 159L304 162L305 162L304 159M358 159L358 165L359 165L358 159M192.333 161.667L192.667 162.333L192.333 161.667M366.333 161.667L366.667 162.333L366.333 161.667M148 162L149 163L148 162M322 162L323 163L322 162M156 163L156 169L157 169L156 163M193.333 163.667L193.667 164.333L193.333 163.667M305 163L306 164L305 163M147.333 164.667L147.667 165.333L147.333 164.667M206 164L207 169L208 169L210 164L206 164M367 164L368 165L367 164M194.333 165.667L194.667 166.333L194.333 165.667M306 165L307 166L306 165M321 165L322 166L321 165M146.333 166.667L146.667 167.333L146.333 166.667M368 166L369 167L368 166M195.333 167.667L195.667 168.333L195.333 167.667M307 167L307 176L308 176L307 167M320 167L321 168L320 167M369.333 168.667L369.667 169.333L369.333 168.667M145.333 169.667L145.667 170.333L145.333 169.667M319 169L320 170L319 169M359 169L359 173L360 173L359 169M196 170L197 171L196 170M318 171L319 172L318 171M370.333 171.667L370.667 172.333L370.333 171.667M144 172L145 173L144 172M197 172L198 173L197 172M317 173L318 174L317 173M198 174L199 175L198 174M316 174L317 175L316 174M371 174L372 175L371 174M143 175L144 176L143 175M199.333 175.667L199.667 176.333L199.333 175.667M315 176L316 177L315 176M142.333 177.667L142.667 178.333L142.333 177.667M200 177L201 178L200 177M314 177L315 178L314 177M372 177L373 178L372 177M201 178L202 179L201 178M313 178L314 179L313 178M202.333 179.667L202.667 180.333L202.333 179.667M207 179L207 186L208 186L207 179M312 179L313 180L312 179M373.333 179.667L373.667 180.333L373.333 179.667M141.333 180.667L141.667 181.333L141.333 180.667M311 180L312 181L311 180M203.333 181.667L203.667 182.333L203.333 181.667M310 181L311 182L310 181M309 182L310 183L309 182M140.333 183.667L140.667 184.333L140.333 183.667M204 183L205 184L204 183M306 183L306 186L308 185L308 184L306 183M308 183L309 184L308 183M374.333 183.667L374.667 184.333L374.333 183.667M205 184L206 185L205 184M359 186L359 190L360 190L359 186M375.333 186.667L375.667 187.333L375.333 186.667M139.333 187.667L139.667 188.333L139.333 187.667M156 189L156 195L157 195L156 189M138 190L138 193L139 193L138 190M376.333 191.667L376.667 192.333L376.333 191.667M358 193L358 197L359 197L358 193M253 194L253 195L257 195L253 194z"/>
<path style="fill:#08f5f8; stroke:none;" d="M257 194.468C244.51 195.709 237.207 205.252 230.671 215C213.75 240.235 212.809 265.273 226.785 292C232.777 303.459 244.15 320.727 259 319.787C271.335 319.007 279.515 307.5 285.564 298C302.364 271.614 304.635 246.061 287.935 219C281.312 208.268 271.696 193.007 257 194.468z"/>
<path style="fill:#249888; stroke:none;" d="M261 194L261 195L264 195L261 194M377 194L377 197L378 197L377 194M137 195L137 199L138 199L137 195M250 195L251 196L250 195M265.667 195.333L266.333 195.667L265.667 195.333M248 196L249 197L248 196M267.667 196.333L268.333 196.667L267.667 196.333M245.667 197.333L246.333 197.667L245.667 197.333M269.667 197.333L270.333 197.667L269.667 197.333M244 198L245 199L244 198M271 198L272 199L271 198M157 199L157 202L158 202L157 199M243 199L244 200L243 199M272 199L273 200L272 199M357 199L357 203L358 203L357 199M242 200L243 201L242 200M273 200L274 201L273 200M378 200L378 204L379 204L378 200M136 201L136 204L137 204L136 201M241 201L242 202L241 201z"/>
<path style="fill:#effefc; stroke:none;" d="M258.999 202.591C244.448 204.806 229.434 226.807 230.21 241C230.602 248.168 235.635 254.117 236.007 261C236.515 270.41 232.55 278.345 235.44 288C238.073 296.799 249.859 313.388 260.938 310.667C265.024 309.663 264.272 305.946 261.767 303.609C257.884 299.987 252.891 298.071 249.329 293.96C238.367 281.31 247.254 270.062 245.437 256C244.363 247.694 238.028 243.173 241.105 234C245.455 221.029 257.849 218.669 264.338 208.777C266.867 204.921 262.59 202.044 258.999 202.591z"/>
<path style="fill:#249888; stroke:none;" d="M158 203L158 206L159 206L158 203M239 203L240 204L239 203M276 203L277 204L276 203M238 204L239 205L238 204M356 204L356 207L357 207L356 204M237 205L238 206L237 205M278 205L279 206L278 205M236 206L237 207L236 206M279 206L280 207L279 206M280 207L281 208L280 207M159.333 208.667L159.667 209.333L159.333 208.667M235 208L236 209L235 208M379 208L379 222L380 222L379 208M234 209L235 210L234 209M281 209L282 210L281 209M355.333 209.667L355.667 210.333L355.333 209.667M135 210L135 221L136 221L135 210M233 210L234 211L233 210M282 210L283 211L282 210M160.333 212.667L160.667 213.333L160.333 212.667M232 212L233 213L232 212M283 212L284 213L283 212M354 212L354 215L355 215L354 212M231 213L232 214L231 213M284 213L285 214L284 213M161.333 215.667L161.667 216.333L161.333 215.667M230 215L231 216L230 215M285 215L286 216L285 215M229 216L230 217L229 216M286 216L287 217L286 216M353 216L354 217L353 216M162 218L163 219L162 218M228 218L229 219L228 218M287 218L288 219L287 218M352.333 218.667L352.667 219.333L352.333 218.667M227 219L228 220L227 219M288 219L289 220L288 219M163.333 221.667L163.667 222.333L163.333 221.667M226 221L227 222L226 221M289 221L290 222L289 221M351.333 221.667L351.667 222.333L351.333 221.667M225 223L226 224L225 223M290 223L291 224L290 223M164.333 224.667L164.667 225.333L164.333 224.667M224.333 224.667L224.667 225.333L224.333 224.667M350 224L350 227L351 227L350 224M291 225L292 226L291 225M136 226L136 229L137 229L136 226M378.333 226.667L378.667 227.333L378.333 226.667M397.667 226.333L398.333 226.667L397.667 226.333M117 227L118 228L117 227M165 227L165 231L166 231L165 227M223 227L224 228L223 227M292 227L293 228L292 227M395 227L396 228L395 227M399 227L400 228L399 227M115.667 228.333L116.333 228.667L115.667 228.333M349.333 228.667L349.667 229.333L349.333 228.667M400 228L401 229L400 228M120 229L121 230L120 229M222 229L223 230L222 229M293.333 229.667L293.667 230.333L293.333 229.667M394.333 229.667L394.667 230.333L394.333 229.667M401.333 229.667L401.667 230.333L401.333 229.667M114 230L115 231L114 230M121 230L121 233L122 233L121 230M113 231L114 232L113 231M137.333 231.667L137.667 232.333L137.333 231.667M221 231L222 232L221 231M294.333 231.667L294.667 232.333L294.333 231.667M402.333 231.667L402.667 232.333L402.333 231.667M348 232L349 233L348 232M377.333 232.667L377.667 233.333L377.333 232.667M112 233L113 234L112 233M165.333 233.667L165.667 234.333L165.333 233.667M220.333 233.667L220.667 234.333L220.333 233.667M403.333 233.667L403.667 234.333L403.333 233.667M295 234L296 235L295 234M349 234L350 235L349 234M393 234L393 240L394 240L393 234M111 235L112 236L111 235M138 235L139 236L138 235M122 236L122 239L123 239L122 236M139.333 236.667L139.667 237.333L139.333 236.667M164 236L165 237L164 236M219.333 236.667L219.667 237.333L219.333 236.667M296.333 236.667L296.667 237.333L296.333 236.667M350 236L351 237L350 236M404 236L405 237L404 236M117 237L116 240L118 241L119 241L117 237M351 237L352 238L351 237M110.333 238.667L110.667 239.333L110.333 238.667M138 238L139 239L138 238M163 238L164 239L163 238z"/>
<path style="fill:#030311; stroke:none;" d="M117 239C114.75 245.142 115.049 256.86 124 256L117 239z"/>
<path style="fill:#249888; stroke:none;" d="M137 239L138 240L137 239M162 239L163 240L162 239M218.333 239.667L218.667 240.333L218.333 239.667M297 239L298 240L297 239M352 239L353 240L352 239M377 239L378 240L377 239M405 239L406 240L405 239M109.333 240.667L109.667 241.333L109.333 240.667M123.333 240.667L123.667 241.333L123.333 240.667M161 240L162 241L161 240M353 240L354 241L353 240M378 240L379 241L378 240M135 241L136 242L135 241M160 241L161 242L160 241M354 241L355 242L354 241M379 241L380 242L379 241M398 241L398 247L399 247L400 241L398 241M115.333 242.667L115.667 243.333L115.333 242.667M134 242L135 243L134 242M140 242L141 243L140 242z"/>
<path style="fill:#030311; stroke:none;" d="M141.184 242.971C137.25 244.02 138.679 249.801 142.775 248.2C146.188 246.866 144.754 242.019 141.184 242.971z"/>
<path style="fill:#249888; stroke:none;" d="M143.667 242.333L144.333 242.667L143.667 242.333M159 242L160 243L159 242M298.333 242.667L298.667 243.333L298.333 242.667M355 242L356 243L355 242M371 242L372 243L371 242M374 242L375 243L374 242M381 242L382 243L381 242M406.333 242.667L406.667 243.333L406.333 242.667M124 243L125 244L124 243M132 243L133 244L132 243M145.333 243.667L145.667 244.333L145.333 243.667M158 243L159 244L158 243M217.333 243.667L217.667 244.333L217.333 243.667M356 243L357 244L356 243M370 243L370 246L371 246L370 243M383 243L384 244L383 243M392 243L393 244L392 243z"/>
<path style="fill:#030311; stroke:none;" d="M399 243L392 252C396.545 259.721 401.058 247.95 399 243z"/>
<path style="fill:#249888; stroke:none;" d="M108 244L108 247L109 247L108 244M125 244L126 245L125 244M131 244L132 245L131 244M138 244L139 245L138 244M157 244L158 245L157 244M357 244L358 245L357 244M375 244L376 245L375 244M385 244L386 245L385 244M400 244L400 249L401 249L400 244M126.667 245.333L127.333 245.667L126.667 245.333M129 245L130 246L129 245M137.333 245.667L137.667 246.333L137.333 245.667M156 245L157 246L156 245M299.333 245.667L299.667 246.333L299.333 245.667M358 245L359 246L358 245M376 245L377 246L376 245M387 245L387 246L392 246L387 245M115 246L115 250L116 250L115 246M118 246L118 249L119 249L118 246M145 246L146 247L145 246M155 246L156 247L155 246M359 246L360 247L359 246M377 246L378 247L377 246M407 246L407 249L408 249L407 246M154 247L155 248L154 247M216.333 247.667L216.667 248.333L216.333 247.667M360 247L361 248L360 247M371 247L372 248L371 247M378 247L379 248L378 247M135 249L135 250L142 250L135 249M143 248L144 249L143 248M153 248L154 249L153 248M362 248L363 249L362 248M379 248L380 249L379 248M397 248L398 249L397 248M107 249L107 254L108 254L107 249M152 249L153 250L152 249M300 249L300 252L301 252L300 249M363 249L364 250L363 249M380 249L381 250L380 249M396 249L397 250L396 249M119 250L120 251L119 250M131 250L131 255L132 255L131 250M150 250L151 251L150 250M364 250L365 251L364 250M372.333 250.667L372.667 251.333L372.333 250.667M381.667 250.333L382.333 250.667L381.667 250.333M393.667 250.333L394.333 250.667L393.667 250.333M399.333 250.667L399.667 251.333L399.333 250.667M116.333 251.667L116.667 252.333L116.333 251.667M141 251L142 252L141 251M147 251L147 252L150 252L147 251M366 251L367 252L366 251M383 251L384 252L383 251M392 251L393 252L392 251M120.667 252.333L121.333 252.667L120.667 252.333M142 252L142 253L145 253L142 252M215 252L215 260L216 260L215 252M369.667 252.333L370.333 252.667L369.667 252.333M373 252L372 254L374 254L373 252M384 252L385 253L384 252M117 253L118 254L117 253M122 253L123 254L122 253M398 253L399 254L398 253M123 254L124 255L123 254M392 254L392 256L394 256L392 254M397 254L398 255L397 254M407 254L407 257L408 257L407 254M118 255L119 256L118 255M132 255L133 256L132 255M301 255L301 258L302 258L301 255M395 255L396 256L395 255M120 256L121 257L120 256M123 256L124 257L123 256M133 256L134 257L133 256M121.667 257.333L122.333 257.667L121.667 257.333M134 257L134 261L135 261L134 257M384 257L385 258L384 257M408 257L408 261L409 261L408 257M381.333 258.667L381.667 259.333L381.333 258.667M107 261L107 265L108 265L107 261M300 261L300 264L301 264L300 261M382.333 261.667L382.667 262.333L382.333 261.667M133.333 263.667L133.667 264.333L133.333 263.667M216 263L216 266L217 266L216 263M299.333 265.667L299.667 266.333L299.333 265.667M383.333 265.667L383.667 266.333L383.333 265.667M407 265L407 268L408 268L407 265M108 266L108 269L109 269L108 266M132.333 267.667L132.667 268.333L132.333 267.667M217.333 267.667L217.667 268.333L217.333 267.667M298.333 269.667L298.667 270.333L298.333 269.667M384 269L384 272L385 272L384 269M109.333 271.667L109.667 272.333L109.333 271.667M131.333 271.667L131.667 272.333L131.333 271.667M218 271L218 274L219 274L218 271M297.333 272.667L297.667 273.333L297.333 272.667M406.333 272.667L406.667 273.333L406.333 272.667M110 275L111 276L110 275M219.333 275.667L219.667 276.333L219.333 275.667M296.333 275.667L296.667 276.333L296.333 275.667M385 275L385 285L386 285L385 275M130 276L130 284L131 284L130 276M405 276L406 277L405 276M111 278L112 279L111 278M220 278L221 279L220 278M295 278L296 279L295 278M404 279L405 280L404 279M112 280L113 281L112 280M221.333 280.667L221.667 281.333L221.333 280.667M294 280L295 281L294 280M403 281L404 282L403 281M113 282L114 283L113 282M222 282L223 283L222 282M293 282L294 283L293 282M402 283L403 284L402 283M114 284L115 285L114 284M223.333 284.667L223.667 285.333L223.333 284.667M292 285L293 286L292 285M115 286L116 287L115 286M400 286L401 287L400 286M116.333 287.667L116.667 288.333L116.333 287.667M131 287L132 288L131 287M224 287L225 288L224 287M291 287L292 288L291 287M399 287L400 288L399 287M398 288L399 289L398 288M117 289L118 290L117 289M131 289L132 290L131 289M225 289L226 290L225 289M290 289L291 290L290 289M385 289L386 290L385 289M397.333 289.667L397.667 290.333L397.333 289.667M118 290L119 291L118 290M127.667 290.333L128.333 290.667L127.667 290.333M387 290L388 291L387 290M117 291L118 292L117 291M126 291L127 292L126 291M226 291L227 292L226 291M289 291L290 292L289 291M388 291L389 292L388 291M398 291L399 292L398 291M125.333 292.667L125.667 293.333L125.333 292.667M389.667 292.333L390.333 292.667L389.667 292.333M399 292L400 293L399 292M116 293L117 294L116 293M227 293L228 294L227 293M288 293L289 294L288 293M115 294L116 295L115 294M124 294L125 295L124 294M287.333 294.667L287.667 295.333L287.333 294.667M391 294L392 295L391 294M400 294L401 295L400 294M114.333 295.667L114.667 296.333L114.333 295.667M123 295L124 296L123 295M228 295L229 296L228 295M401 295L402 296L401 295M122 296L123 297L122 296M229 296L230 297L229 296M286 296L287 297L286 296M113 297L114 298L113 297M121 297L122 298L121 297M394 297L395 298L394 297M402 297L403 298L402 297M112 298L113 299L112 298M120 298L121 299L120 298M230 298L231 299L230 298M285 298L286 299L285 298M395 298L396 299L395 298M403 298L404 299L403 298M119 299L120 300L119 299M231 299L232 300L231 299M284 299L285 300L284 299M396 299L397 300L396 299M111 300L112 301L111 300M118 300L119 301L118 300M404.333 300.667L404.667 301.333L404.333 300.667M117 301L118 302L117 301M232 301L233 302L232 301M283 301L284 302L283 301M397 301L397 306L398 306L397 301M116.333 302.667L116.667 303.333L116.333 302.667M233 302L234 303L233 302M282 302L283 303L282 302M234 303L235 304L234 303M281.333 303.667L281.667 304.333L281.333 303.667M117 305L118 306L117 305M235 305L236 306L235 305M280 305L281 306L280 305M404.333 305.667L404.667 306.333L404.333 305.667M111 306L112 307L111 306M236 306L237 307L236 306M279 306L280 307L279 306M396.333 306.667L396.667 307.333L396.333 306.667M118 307L119 308L118 307M237 307L238 308L237 307M278 307L279 308L278 307M112 308L113 309L112 308M119 308L120 309L119 308M238 308L239 309L238 308M395 308L396 309L395 308M403 308L404 309L403 308M120 309L121 310L120 309M113 310L114 311L113 310M121 310L122 311L121 310M276 310L277 311L276 310M394 310L395 311L394 310M402 310L403 311L402 310M114 311L115 312L114 311M122 311L123 312L122 311M240 311L241 312L240 311M275 311L276 312L275 311M393 311L394 312L393 311M401 311L402 312L401 311M123 312L124 313L123 312M241 312L242 313L241 312M274 312L275 313L274 312M392 312L393 313L392 312M115 313L116 314L115 313M124 313L125 314L124 313M140 313L140 314L146 314L140 313M242 313L243 314L242 313M273 313L274 314L273 313M369 313L369 314L376 314L369 313M391 313L392 314L391 313M116 314L117 315L116 314M125 314L126 315L125 314M137 314L135 317L137 314z"/>
<path style="fill:#08f5f8; stroke:none;" d="M199 363C198.392 368.179 204.566 374.87 201.883 379.685C197.688 387.213 182.072 378.344 178 375.065C160.634 361.079 145.686 343.418 141 321C164.624 320.09 181.155 350.102 197 363C200.025 351.973 186.428 335.399 177 331L178 340C173.222 334.766 169.359 328.908 164 324.184C149.201 311.141 129.255 310.326 133.615 335C136.604 351.917 148.196 366.922 160.093 378.91C170.559 389.455 185.686 398.753 201 396.815C225.214 393.751 210.261 370.832 199 363z"/>
<path style="fill:#249888; stroke:none;" d="M148.667 314.333L149.333 314.667L148.667 314.333M243.667 314.333L244.333 314.667L243.667 314.333M272 314L273 315L272 314M366 314L367 315L366 314z"/>
<path style="fill:#08f5f8; stroke:none;" d="M336 340L338 331C330.151 333.906 322.147 346.401 319.074 354C317.841 357.048 318.295 360.605 316.106 363.239C310.645 369.812 302.839 371.265 301.329 381C298.762 397.552 320.111 399.05 331 394.934C352.454 386.826 373.545 363.683 380.896 342C385.186 329.343 384.455 307.442 365 315.353C361.033 316.966 357.424 319.474 354.004 322.015C347.151 327.109 342.616 334.567 336 340z"/>
<path style="fill:#249888; stroke:none;" d="M377 314L378 315L377 314M399 314L400 315L399 314M151 315L152 316L151 315M245 315L246 316L245 315M270 315L271 316L270 315M364 315L365 316L364 315M379 315L380 316L379 315M390 315L391 316L390 315M398 315L399 316L398 315M117 316L118 317L117 316M126 316L126 323L127 323L126 316M153 316L154 317L153 316M246 316L247 317L246 316M269 316L270 317L269 316M362 316L363 317L362 316M380 316L381 317L380 316M389 316L390 317L389 316M397 316L398 317L397 316M118 317L119 318L118 317M155 317L156 318L155 317M248 317L249 318L248 317M267 317L268 318L267 317M360 317L361 318L360 317M381 317L382 318L381 317M134 318L135 319L134 318M156 318L157 319L156 318M250 318L251 319L250 318M265 318L266 319L265 318M358 318L359 319L358 318M388 318L388 321L389 321L388 318M396 318L397 319L396 318M119 319L119 323L120 323L119 319M157 319L158 320L157 319M252 319L252 320L255 320L252 319M261 319L261 320L264 320L261 319M357 319L358 320L357 319M382 319L383 320L382 319M133 320L134 321L133 320M144.667 320.333L145.333 320.667L144.667 320.333M159 320L160 321L159 320M356 320L357 321L356 320M371 320L371 321L374 323L375 323L371 320M383.333 320.667L383.667 321.333L383.333 320.667M395 320L396 321L395 320M141 321L141 324L142 324L143 321L141 321z"/>
<path style="fill:#030311; stroke:none;" d="M162 362L163 362C160.009 353.769 148.988 328.086 168 335C163.651 329.738 156.319 325.153 150 322.53C147.558 321.517 143.091 320.301 142.619 324.149C141.126 336.319 155.715 352.77 162 362z"/>
<path style="fill:#249888; stroke:none;" d="M147.667 321.333L148.333 321.667L147.667 321.333M160 321L161 322L160 321M354 321L355 322L354 321M368.667 321.333L369.333 321.667L368.667 321.333z"/>
<path style="fill:#030311; stroke:none;" d="M349 333L349 334L358 332C360.152 343.593 356.47 351.573 352 362C363.258 353.709 371.981 334.669 374 321C364.25 321.797 356.732 327.463 349 333z"/>
<path style="fill:#249888; stroke:none;" d="M132 322L132 330L133 330L132 322M150 322L151 323L150 322M162 322L163 323L162 322M353 322L354 323L353 322M365 322L366 323L365 322M389 322L390 323L389 322M396 322L397 323L396 322M152 323L153 324L152 323M163 323L164 324L163 323M363 323L364 324L363 323M125.333 324.667L125.667 325.333L125.333 324.667M153 324L154 325L153 324M164 324L165 325L164 324M361 324L362 325L361 324M373.333 324.667L373.667 325.333L373.333 324.667M390 324L391 325L390 324M118 325L118 328L119 328L118 325M142 325L142 328L143 328L142 325M155 325L156 326L155 325M165 325L166 326L165 325M359.667 325.333L360.333 325.667L359.667 325.333M397 325L397 328L398 328L397 325M166 326L167 327L166 326M358 326L359 327L358 326M391.333 326.667L391.667 327.333L391.333 326.667M158 327L159 328L158 327M167 327L168 328L167 327M356 327L357 328L356 327M372.333 327.667L372.667 328.333L372.333 327.667M124 328L125 329L124 328M160 328L161 329L160 328M168 328L169 329L168 328M347 328L348 329L347 328M355 328L356 329L355 328M383 328L383 331L384 331L383 328M143 329L144 330L143 329M161 329L162 330L161 329M169 329L170 330L169 329M346 329L347 330L346 329M353 329L354 330L353 329M163 330L164 331L163 330M170 330L171 331L170 330M345 330L346 331L345 330M352 330L353 331L352 330M371 330L372 331L371 330M144.333 331.667L144.667 332.333L144.333 331.667M164 331L165 332L164 331M171 331L172 332L171 331M179 331L180 332L179 331M335 331L336 332L335 331M338 331L338 335L339 335L338 331M344 331L345 332L344 331M351 331L352 332L351 331M166 332L167 333L166 332M176 332L176 335L177 335L176 332M180 332L181 333L180 332M349 332L350 333L349 332M356.667 332.333L357.333 332.667L356.667 332.333M145.333 333.667L145.667 334.333L145.333 333.667M158 333L157 335L158 333z"/>
<path style="fill:#f8fa0c; stroke:none;" d="M159.318 334.042C154.593 337.03 157.234 347.846 158.699 352C162.932 364.003 174.124 375.507 186 380.174C189.616 381.595 197.8 383.875 201.243 380.972C205.117 377.707 199.93 369.16 198.127 366C192.135 355.496 182.771 345.253 173 338.16C169.722 335.78 163.539 331.373 159.318 334.042z"/>
<path style="fill:#249888; stroke:none;" d="M164 333L165 334L164 333M167 333L168 334L167 333M172 333L173 334L172 333M181 333L182 334L181 333M333 333L334 334L333 333M348 333L346 336L350 334L348 333M352 333L353 334L352 333z"/>
<path style="fill:#f8fa0c; stroke:none;" d="M358 333C341.324 333.762 328.1 349.848 319.936 363C317.568 366.815 310.389 376.511 314.832 381.127C319.285 385.755 331.921 379.572 335.999 376.899C350.654 367.293 361.312 350.842 358 333z"/>
<path style="fill:#249888; stroke:none;" d="M370 333L371 334L370 333M133 334L133 337L134 337L133 334M168 334L169 335L168 334M173 334L174 335L173 334M182 334L183 335L182 334M332 334L333 335L332 334M342 334L343 335L342 334M358.333 334.667L358.667 335.333L358.333 334.667M382 334L382 338L383 338L382 334M169 335L170 336L169 335M183 335L184 336L183 335M331 335L332 336L331 335M341 335L342 336L341 335M369 335L370 336L369 335M391 335L391 338L392 338L391 335M97 336L98 337L97 336M101.667 336.333L102.333 336.667L101.667 336.333M170.667 336.333L171.333 336.667L170.667 336.333M174 336L175 337L174 336M177 336L177 340L178 340L177 336M184 336L185 337L184 336M337 336L338 337L337 336M340 336L341 337L340 336M412.667 336.333L413.333 336.667L412.667 336.333M417 336L418 337L417 336M103.667 337.333L104.333 337.667L103.667 337.333M146 337L147 338L146 337M175 337L176 338L175 337M185 337L186 338L185 337M330 337L331 338L330 337M339 337L340 338L339 337z"/>
<path style="fill:#effefc; stroke:none;" d="M343 337L344 338L343 337z"/>
<path style="fill:#249888; stroke:none;" d="M368.333 337.667L368.667 338.333L368.333 337.667M411 337L412 338L411 337M418 337L419 338L418 337M96.3333 338.667L96.6667 339.333L96.3333 338.667M105 338L106 339L105 338M124.333 338.667L124.667 339.333L124.333 338.667M329 338L330 339L329 338M336.333 338.667L336.667 339.333L336.333 338.667M409 338L410 339L409 338M107 339L108 340L107 339M118 339L118 342L119 342L118 339M134.333 339.667L134.667 340.333L134.333 339.667M147 339L148 340L147 339M186 339L187 340L186 339M328 339L329 340L328 339M398.333 339.667L398.667 340.333L398.333 339.667M407 339L408 340L407 339M419.333 339.667L419.667 340.333L419.333 339.667M109 340L110 341L109 340M187 340L188 341L187 340M367 340L368 341L367 340M381.333 340.667L381.667 341.333L381.333 340.667M391.333 340.667L391.667 341.333L391.333 340.667M406 340L407 341L406 340M95 341L95 344L96 344L95 341M110 341L111 342L110 341M125 341L126 342L125 341M148 341L149 342L148 341M188 341L189 342L188 341M327 341L328 342L327 341M399 341L400 342L399 341M404.667 341.333L405.333 341.667L404.667 341.333M113 342L113 343L118 343L113 342M149 342L150 343L149 342M326 342L327 343L326 342M366 342L367 343L366 342M400 342L400 343L403 343L400 342M413 342L414 343L413 342M101 343L101 355L102 355L104 344L101 343M125 343L126 344L125 343M135 343L136 344L135 343M325 343L326 344L325 343M365 343L366 344L365 343M380 343L381 344L380 343M392 343L393 344L392 343M412 343L413 344L412 343M414 343L414 352L415 352L414 343M420 343L420 352L421 352L420 343M104 344L105 345L104 344M123 344L124 345L123 344M150 344L151 345L150 344M190 344L191 345L190 344M324 344L325 345L324 344M358.333 344.667L358.667 345.333L358.333 344.667M411 344L412 345L411 344M106 345L107 346L106 345M121.667 345.333L122.333 345.667L121.667 345.333M191 345L192 346L191 345M323 345L324 346L323 345M364 345L365 346L364 345M379.333 345.667L379.667 346.333L379.333 345.667M409 345L410 346L409 345M107.667 346.333L108.333 346.667L107.667 346.333M120 346L121 347L120 346M136 346L137 347L136 346M151 346L152 347L151 346M192 346L193 347L192 346M395 346L396 347L395 346M408 346L409 347L408 346M109.667 347.333L110.333 347.667L109.667 347.333M118 347L119 348L118 347M152 347L153 348L152 347M322 347L323 348L322 347z"/>
<path style="fill:#effefc; stroke:none;" d="M332 347L333 348L332 347z"/>
<path style="fill:#249888; stroke:none;" d="M363 347L364 348L363 347M378.333 347.667L378.667 348.333L378.333 347.667M396 347L397 348L396 347M406 347L407 348L406 347M112 348L112 349L117 349L112 348M137 348L138 349L137 348M157 348L158 349L157 348M193 348L194 349L193 348M398 348L398 349L405 349L398 348M153 349L154 350L153 349M194 349L195 350L194 349M321 349L322 350L321 349z"/>
<path style="fill:#effefc; stroke:none;" d="M330 349L331 350L330 349z"/>
<path style="fill:#249888; stroke:none;" d="M357 349L358 350L357 349M362 349L363 350L362 349M377.333 349.667L377.667 350.333L377.333 349.667M138 350L139 351L138 350M154 350L155 351L154 350M361 350L362 351L361 350M115 351L116 352L115 351M158 351L159 352L158 351M195 351L196 352L195 351M320 351L321 352L320 351z"/>
<path style="fill:#effefc; stroke:none;" d="M328 351L329 352L328 351z"/>
<path style="fill:#249888; stroke:none;" d="M376 351L377 352L376 351M139 352L140 353L139 352M155 352L156 353L155 352M196.333 352.667L196.667 353.333L196.333 352.667M319 352L320 353L319 352z"/>
<path style="fill:#effefc; stroke:none;" d="M327 352L328 353L327 352z"/>
<path style="fill:#249888; stroke:none;" d="M356 352L357 353L356 352M360 352L361 353L360 352M95 353L95 357L96 357L95 353z"/>
<path style="fill:#effefc; stroke:none;" d="M188 353L189 354L188 353z"/>
<path style="fill:#249888; stroke:none;" d="M375 353L376 354L375 353M140 354L141 355L140 354M156 354L157 355L156 354M159 354L160 355L159 354z"/>
<path style="fill:#effefc; stroke:none;" d="M189 354L190 355L189 354z"/>
<path style="fill:#249888; stroke:none;" d="M318 354L319 355L318 354M355.333 354.667L355.667 355.333L355.333 354.667M359 354L360 355L359 354M141 355L142 356L141 355z"/>
<path style="fill:#effefc; stroke:none;" d="M190 355L191 356L190 355z"/>
<path style="fill:#249888; stroke:none;" d="M197.333 355.667L197.667 356.333L197.333 355.667M358 355L359 356L358 355M374 355L375 356L374 355M413 355L413 358L414 358L413 355M419 355L419 358L420 358L419 355M160 356L161 357L160 356M317 356L317 359L318 359L317 356M357 356L358 357L357 356M373 356L374 357L373 356M102 357L102 361L103 361L102 357M142 357L143 358L142 357M158 357L159 358L158 357M143 358L144 359L143 358M159 358L160 359L159 358M161 358L162 359L161 358M356 358L357 359L356 358M372 358L373 359L372 358M96 359L96 362L97 362L96 359M144 359L145 360L144 359M160 359L161 360L160 359M198.333 359.667L198.667 360.333L198.333 359.667M355 359L356 360L355 359M371 359L372 360L371 359M161 360L162 361L161 360M352 360L353 361L352 360M354 360L355 361L354 360M370 360L371 361L370 360M412.333 360.667L412.667 361.333L412.333 360.667M145 361L146 362L145 361M163.333 361.667L163.667 362.333L163.333 361.667M315 361L316 362L315 361M353 361L354 362L353 361M418 361L419 362L418 361M103.333 362.667L103.667 363.333L103.333 362.667M146 362L147 363L146 362M197 362L196 363L196 364L197 365L198 365L199 364L199 363L197 362M317 362L318 363L317 362M348 366L353 362L348 366M369 362L370 363L369 362M164 363L165 364L164 363z"/>
<path style="fill:#030311; stroke:none;" d="M197 363L198 364L197 363z"/>
<path style="fill:#249888; stroke:none;" d="M200 363L201 364L200 363M368 363L369 364L368 363M411.333 363.667L411.667 364.333L411.333 363.667M97 364L98 365L97 364M201 364L202 365L201 364M315 364L316 365L315 364M367 364L368 365L367 364M417 364L418 365L417 364M104 365L105 366L104 365M149 365L150 366L149 365M202 365L203 366L202 365z"/>
<path style="fill:#effefc; stroke:none;" d="M318 365L319 366L318 365z"/>
<path style="fill:#249888; stroke:none;" d="M366 365L367 366L366 365M98.3333 366.667L98.6667 367.333L98.3333 366.667z"/>
<path style="fill:#effefc; stroke:none;" d="M198 366L199 367L198 366z"/>
<path style="fill:#249888; stroke:none;" d="M203 366L204 367L203 366M312 366L313 367L312 366M365 366L366 367L365 366M410 366L411 367L410 366M105.333 367.667L105.667 368.333L105.333 367.667M204 367L205 368L204 367M310 367L311 368L310 367z"/>
<path style="fill:#effefc; stroke:none;" d="M346 367L347 368L346 367z"/>
<path style="fill:#249888; stroke:none;" d="M416 367L417 368L416 367M151 368L152 369L151 368z"/>
<path style="fill:#effefc; stroke:none;" d="M199 368L200 369L199 368z"/>
<path style="fill:#249888; stroke:none;" d="M205 368L206 369L205 368z"/>
<path style="fill:#effefc; stroke:none;" d="M316 368L317 369L316 368z"/>
<path style="fill:#249888; stroke:none;" d="M364 368L365 369L364 368M409 368L410 369L409 368M99.3333 369.667L99.6667 370.333L99.3333 369.667M106 369L107 370L106 369M152 369L153 370L152 369M207 369L208 370L207 369M307 369L308 370L307 369M363 369L364 370L363 369M153 370L154 371L153 370z"/>
<path style="fill:#effefc; stroke:none;" d="M200 370L201 371L200 370z"/>
<path style="fill:#249888; stroke:none;" d="M306 370L307 371L306 370z"/>
<path style="fill:#effefc; stroke:none;" d="M343 370L344 371L343 370z"/>
<path style="fill:#249888; stroke:none;" d="M408 370L409 371L408 370M415 370L416 371L415 370M100.333 371.667L100.667 372.333L100.333 371.667M107 371L108 372L107 371M154 371L155 372L154 371M209 371L210 372L209 371M305 371L306 372L305 371M362 371L363 372L362 371z"/>
<path style="fill:#effefc; stroke:none;" d="M174 372L175 373L174 372M201 372L202 373L201 372z"/>
<path style="fill:#249888; stroke:none;" d="M210 372L211 373L210 372M304 372L305 373L304 372z"/>
<path style="fill:#effefc; stroke:none;" d="M314 372L315 373L314 372M341 372L342 373L341 372z"/>
<path style="fill:#249888; stroke:none;" d="M361 372L362 373L361 372M407 372L408 373L407 372M414 372L415 373L414 372M108 373L109 374L108 373M155 373L156 374L155 373M211.333 373.667L211.667 374.333L211.333 373.667M303 373L304 374L303 373M360 373L361 374L360 373M101 374L102 375L101 374M156 374L157 375L156 374M359 374L360 375L359 374M406 374L407 375L406 374M413 374L414 375L413 374M102 375L103 376L102 375M109 375L110 376L109 375M212 375L213 376L212 375M302.333 375.667L302.667 376.333L302.333 375.667M358 375L359 376L358 375M110 376L111 377L110 376z"/>
<path style="fill:#effefc; stroke:none;" d="M202 376L203 377L202 376z"/>
<path style="fill:#249888; stroke:none;" d="M357 376L358 377L357 376M405 376L406 377L405 376M103 377L104 378L103 377M111 377L112 378L111 377M158 377L159 378L158 377z"/>
<path style="fill:#effefc; stroke:none;" d="M180 377L181 378L180 377z"/>
<path style="fill:#249888; stroke:none;" d="M213 377L214 378L213 377z"/>
<path style="fill:#effefc; stroke:none;" d="M313.333 377.667L313.667 378.333L313.333 377.667z"/>
<path style="fill:#249888; stroke:none;" d="M404 377L405 378L404 377M104 378L105 379L104 378M301.333 378.667L301.667 379.333L301.333 378.667z"/>
<path style="fill:#effefc; stroke:none;" d="M184 379L185 380L184 379z"/>
<path style="fill:#249888; stroke:none;" d="M214 379L214 383L215 383L214 379M410 379L411 380L410 379M105 380L106 381L105 380M113 380L114 381L113 380z"/>
<path style="fill:#effefc; stroke:none;" d="M202 380L203 381L202 380M313 380L314 381L313 380z"/>
<path style="fill:#249888; stroke:none;" d="M353 380L354 381L353 380M402 380L403 381L402 380M409 380L410 381L409 380M106 381L107 382L106 381M114 381L115 382L114 381M300 381L300 386L301 386L300 381M352 381L353 382L352 381M401 381L402 382L401 381M115 382L116 383L115 382M164 382L165 383L164 382z"/>
<path style="fill:#effefc; stroke:none;" d="M196 382L197 383L196 382M316 382L317 383L316 382M319 382L320 383L319 382z"/>
<path style="fill:#249888; stroke:none;" d="M351 382L352 383L351 382M400 382L401 383L400 382M116 383L117 384L116 383M165 383L166 384L165 383M350 383L351 384L350 383M399 383L400 384L399 383M407 383L408 384L407 383M108 384L109 385L108 384M117 384L118 385L117 384M166 384L167 385L166 384M348 384L349 385L348 384M398 384L399 385L398 384M406 384L407 385L406 384M118 385L119 386L118 385M167.667 385.333L168.333 385.667L167.667 385.333M347 385L348 386L347 385M396 385L397 386L396 385M405 385L406 386L405 385M111 386L112 387L111 386M120 386L121 387L120 386M169 386L170 387L169 386M214 386L215 387L214 386M345 386L346 387L345 386M395 386L396 387L395 386M404 386L405 387L404 386M112 387L113 388L112 387M121 387L122 388L121 387M171 387L172 388L171 387M301 387L302 388L301 387M344 387L345 388L344 387M393 387L394 388L393 387M403 387L404 388L403 387M113 388L114 389L113 388M123 388L124 389L123 388M172 388L173 389L172 388M343 388L344 389L343 388M392 388L393 389L392 388M402 388L403 389L402 388M114 389L115 390L114 389M124 389L125 390L124 389M173 389L174 390L173 389M213 389L214 390L213 389M302 389L303 390L302 389M342 389L343 390L342 389M390 389L391 390L390 389M401 389L402 390L401 389M126 390L127 391L126 390M175 390L176 391L175 390M212 390L213 391L212 390M340 390L341 391L340 390M388.667 390.333L389.333 390.667L388.667 390.333M116 391L117 392L116 391M128 391L129 392L128 391M177 391L178 392L177 391M211 391L212 392L211 391M303 391L304 392L303 391M338 391L339 392L338 391M387 391L388 392L387 391M398 391L399 392L398 391M117 392L118 393L117 392M129 392L130 393L129 392M178 392L179 393L178 392M210 392L211 393L210 392M304 392L305 393L304 392M336 392L337 393L336 392M385 392L386 393L385 392M397 392L398 393L397 392M119 393L120 394L119 393M131 393L132 394L131 393M180 393L181 394L180 393M209 393L210 394L209 393M306 393L307 394L306 393M334.667 393.333L335.333 393.667L334.667 393.333M384 393L385 394L384 393M395 393L396 394L395 393M120 394L121 395L120 394M133 394L134 395L133 394M182 394L183 395L182 394M208 394L209 395L208 394M307 394L308 395L307 394M332 394L333 395L332 394M381.667 394.333L382.333 394.667L381.667 394.333M394 394L395 395L394 394M122 395L123 396L122 395M135 395L136 396L135 395M184.667 395.333L185.333 395.667L184.667 395.333M206 395L207 396L206 395M309 395L310 396L309 395M329.667 395.333L330.333 395.667L329.667 395.333M379 395L380 396L379 395M393 395L394 396L393 395M123 396L124 397L123 396M138 396L139 397L138 396M187.667 396.333L188.333 396.667L187.667 396.333M203.667 396.333L204.333 396.667L203.667 396.333M311 396L312 397L311 396M326.667 396.333L327.333 396.667L326.667 396.333M377 396L378 397L377 396M391 396L392 397L391 396M125 397L126 398L125 397M140 397L141 398L140 397M191 397L191 398L201 398L191 397M314 397L314 398L324 398L314 397M374.667 397.333L375.333 397.667L374.667 397.333M126 398L127 399L126 398M143.667 398.333L144.333 398.667L143.667 398.333M371.667 398.333L372.333 398.667L371.667 398.333M387 398L388 399L387 398M129 399L130 400L129 399M368 399L368 401L370 399L368 399M385 399L386 400L385 399M131.667 400.333L132.333 400.667L131.667 400.333M133.667 401.333L134.333 401.667L133.667 401.333M369 401L370 402L369 401M381 401L382 402L381 401M135.667 402.333L136.333 402.667L135.667 402.333M379 402L380 403L379 402M137.667 403.333L138.333 403.667L137.667 403.333M377 403L378 404L377 403M139 404L139 409L140 409L139 404M145 404L145 409L146 409L145 404M376.333 404.667L376.667 405.333L376.333 404.667M369 409L369 412L370 412L369 409M375 410L375 414L376 414L375 410M266 412L267 413L266 412M140 413L140 418L141 418L140 413M146 413L146 416L147 416L146 413M169 413L170 414L169 413M248 413L249 414L248 413M348.333 413.667L348.667 414.333L348.333 413.667M171.667 414.333L172.333 414.667L171.667 414.333M345 414L346 415L345 414M167 415L168 416L167 415M174 415L175 416L174 415M245 415L246 416L245 415M265 415L266 416L265 415M341.667 415.333L342.333 415.667L341.667 415.333M368 415L368 418L369 418L368 415M166 416L167 417L166 416M176 416L177 417L176 416M250 416L251 417L250 416M339 416L340 417L339 416M349.333 416.667L349.667 417.333L349.333 416.667M165 417L166 418L165 417M177 417L178 418L177 417M265 417L266 418L265 417M336.667 417.333L337.333 417.667L336.667 417.333M147 418L147 422L148 422L147 418M164 418L165 419L164 418M180 418L181 419L180 418M251 418L252 419L251 418M333.667 418.333L334.333 418.667L333.667 418.333M350 418L351 419L350 418M374.333 418.667L374.667 419.333L374.333 418.667M182.667 419.333L183.333 419.667L182.667 419.333M261 419L262 420L261 419M332 419L333 420L332 419M351 419L352 420L351 419M141.333 420.667L141.667 421.333L141.333 420.667M184.333 420.667L184.667 421.333L184.333 420.667M241 420L240 422L241 420M258 420L259 421L258 420M331 420L332 421L331 420M352 420L353 421L352 420M162 421L163 422L162 421M353 421L354 422L353 421M367.333 421.667L367.667 422.333L367.333 421.667M161 422L162 423L161 422M273 422L274 423L273 422M275 422L276 423L275 422M330 422L331 423L330 422M354 422L355 423L354 422M148.333 423.667L148.667 424.333L148.333 423.667M160 423L161 424L160 423M240.333 423.667L240.667 424.333L240.333 423.667M355 423L356 424L355 423M159 424L160 425L159 424M185.333 424.667L185.667 425.333L185.333 424.667M329.333 424.667L329.667 425.333L329.333 424.667M356 424L357 425L356 424M373 424L374 425L373 424M142.333 425.667L142.667 426.333L142.333 425.667M158 425L159 426L158 425M274 425L275 426L274 425M357 425L358 426L357 425M366.333 425.667L366.667 426.333L366.333 425.667M157 426L158 427L157 426M186.333 426.667L186.667 427.333L186.333 426.667M238 426L237 429L238 426M277 426L278 427L277 426M149 427L150 428L149 427M156 427L157 428L156 427M359 427L360 428L359 427M372 427L373 428L372 427M143 428L144 429L143 428M155 428L156 429L155 428M328 428L329 429L328 428M360 428L361 429L360 428M365.333 428.667L365.667 429.333L365.333 428.667M154 429L155 430L154 429M187 429L188 430L187 429M361 429L362 430L361 429M150.333 430.667L150.667 431.333L150.333 430.667M153 430L154 431L153 430M161.667 430.333L162.333 430.667L161.667 430.333M173 430L173 431L180 431L173 430M237 430L236 432L237 430M327 430L328 431L327 430M336 430L336 431L344 431L336 430M349.667 430.333L350.333 430.667L349.667 430.333M363.667 430.333L364.333 430.667L363.667 430.333M371 430L372 431L371 430M144 431L145 432L144 431M152 431L153 432L152 431M181.333 431.667L181.667 432.333L181.333 431.667M188.333 431.667L188.667 432.333L188.333 431.667M257.667 431.333L258.333 431.667L257.667 431.333M279 431L280 432L279 431M352 431L353 432L352 431M151 432L152 433L151 432M160 432L161 433L160 432M326.333 432.667L326.667 433.333L326.333 432.667M333 432L334 433L333 432M353 432L354 433L353 432M370 432L371 433L370 432M145 433L146 434L145 433M159 433L160 434L159 433M182.333 433.667L182.667 434.333L182.333 433.667M264 433L265 434L264 433M355 433L356 434L355 433M158 434L159 435L158 434M189 434L190 435L189 434M220 434L220 438L221 438L222 434L220 434M279.333 434.667L279.667 435.333L279.333 434.667M295 434L296 435L295 434M325.333 434.667L325.667 435.333L325.333 434.667M332.333 434.667L332.667 435.333L332.333 434.667M357 434L358 435L357 434M369 434L370 435L369 434M146 435L147 436L146 435M296 435L297 436L296 435M359 435L360 436L359 435M157 436L158 437L157 436M183 436L184 437L183 436M190 436L191 437L190 436M217 436L218 437L217 436M239 445L236 443L235 455L236 455C242.254 433.341 277.582 430.095 279 456L280 456L281 447L278 441L276 443L275 443L273 438C260.34 437.154 247.656 432.301 239 445M294.333 436.667L294.667 437.333L294.333 436.667M298 436L299 437L298 436M324 436L325 437L324 436M331.333 436.667L331.667 437.333L331.333 436.667M368 436L369 437L368 436M147 437L148 438L147 437M184 437L185 438L184 437M216 437L217 438L216 437z"/>
<path style="fill:#08f5f8; stroke:none;" d="M252 437.529C225.32 443.697 239.663 475.675 263 470.319C290.126 464.094 275.871 432.011 252 437.529z"/>
<path style="fill:#249888; stroke:none;" d="M278.333 437.667L278.667 438.333L278.333 437.667M299 437L300 438L299 437M360.333 437.667L360.667 438.333L360.333 437.667M367 437L368 438L367 437M156 438L157 439L156 438M191 438L192 439L191 438M215 438L216 439L215 438z"/>
<path style="fill:#030311; stroke:none;" d="M269 438L270 439L269 438z"/>
<path style="fill:#249888; stroke:none;" d="M300 438L301 439L300 438M323 438L324 439L323 438M148 439L149 440L148 439M192 439L193 440L192 439M214 439L215 440L214 439M221 439L221 442L222 442L221 439M239 441L242 439L239 441M280 439L280 442L281 442L280 439M301 439L302 440L301 439M366 439L367 440L366 439M149 440L150 441L149 440M185 440L186 441L185 440M213 440L214 441L213 440M235 440L236 441L235 440M322.333 440.667L322.667 441.333L322.333 440.667M365 440L366 441L365 440M153 441L154 442L153 441M193 441L194 442L193 441M212.333 441.667L212.667 442.333L212.333 441.667M293.333 441.667L293.667 442.333L293.333 441.667M302 441L303 442L302 441M364 441L365 442L364 441M186 442L187 443L186 442M194 442L195 443L194 442M303 442L304 443L303 442M321 442L322 443L321 442M328 442L329 443L328 442M211 443L212 444L211 443M222.333 443.667L222.667 444.333L222.333 443.667z"/>
<path style="fill:#030311; stroke:none;" d="M276 443L278 445L276 443z"/>
<path style="fill:#249888; stroke:none;" d="M304.333 443.667L304.667 444.333L304.333 443.667M187 444L188 445L187 444M195 444L196 445L195 444M280.333 444.667L280.667 445.333L280.333 444.667M320 444L321 445L320 444M327 444L328 445L327 444M188 445L189 446L188 445M210 445L211 446L210 445M215.667 445.333L216.333 445.667L215.667 445.333M292.333 445.667L292.667 446.333L292.333 445.667M299 445L300 446L299 445M305 445L306 446L305 445M319 445L320 446L319 445M209 446L210 447L209 446M223.333 446.667L223.667 447.333L223.333 446.667M298.333 446.667L298.667 447.333L298.333 446.667M300 446L301 447L300 446M318 446L319 447L318 446M189 447L190 448L189 447M197 447L198 448L197 447M214 447L215 448L214 447M217.333 447.667L217.667 448.333L217.333 447.667M306 447L307 448L306 447M317 447L318 448L317 447M325 447L326 448L325 447M190 448L191 449L190 448M198 448L199 449L198 448M208 448L209 449L208 448M291 448L292 449L291 448M301 448L302 449L301 448M307.333 448.667L307.667 449.333L307.333 448.667M324 448L325 449L324 448M191 449L192 450L191 449M199 449L200 450L199 449M297.333 449.667L297.667 450.333L297.333 449.667M316 449L317 450L316 449M207 450L208 451L207 450M213 450L214 451L213 450M224 450L225 451L224 450M315 450L316 451L315 450M323 450L324 451L323 450M192 451L193 452L192 451M200 451L201 452L200 451M206.333 451.667L206.667 452.333L206.333 451.667M218 451L219 452L218 451M290 451L291 452L290 451M302 451L302 454L303 454L302 451M308 451L309 452L308 451M314 451L315 452L314 451M322 451L323 452L322 451M193 452L194 453L193 452M201 452L202 453L201 452M225.333 452.667L225.667 453.333L225.333 452.667M296 452L297 453L296 452M313 452L314 453L313 452M194 453L195 454L194 453M212.333 453.667L212.667 454.333L212.333 453.667M289.333 453.667L289.667 454.333L289.333 453.667M309 453L310 454L309 453M312 453L313 454L312 453M321 453L322 454L321 453M202 454L203 455L202 454M205 454L206 455L205 454M219 454L220 455L219 454M311 454L312 455L311 454M320 454L321 455L320 454M195 455L196 456L195 455M203.667 455.333L204.333 455.667L203.667 455.333M226 455L227 456L226 455M295 455L296 456L295 455M319 455L320 456L319 455M196 456L197 457L196 456M220 456L221 457L220 456M236 456L237 457L236 456M288 456L289 457L288 456M303 456L303 459L304 459L303 456M318 456L319 457L318 456M197 457L198 458L197 457M211.333 457.667L211.667 458.333L211.333 457.667M227 457L228 458L227 457M278.333 457.667L278.667 458.333L278.333 457.667M294 457L295 458L294 457M198 458L199 459L198 458M221 458L222 459L221 458M237 458L238 459L237 458M287 458L288 459L287 458M316 458L317 459L316 458M199 459L200 460L199 459M228 459L229 460L228 459M277 459L278 460L277 459M286 459L287 460L286 459M293 459L294 460L293 459M200 460L201 461L200 460M222 460L223 461L222 460M229 460L230 461L229 460M238 460L239 461L238 460M285 460L286 461L285 460M304.333 460.667L304.667 461.333L304.333 460.667M201 461L202 462L201 461M210 461L211 462L210 461M230 461L231 462L230 461M239 461L240 462L239 461M276 461L277 462L276 461M292 461L293 462L292 461M313 461L314 462L313 461M203 462L204 463L203 462M223 462L224 463L223 462M231 462L232 463L231 462M275 462L276 463L275 462M284 462L285 463L284 462M305 462L306 463L305 462M312 462L313 463L312 462M204 463L205 464L204 463M240 463L241 464L240 463M274 463L275 464L274 463M283 463L284 464L283 463M291 463L292 464L291 463M306 463L307 464L306 463M310 463L311 464L310 463M224 464L225 465L224 464M232 464L233 465L232 464M241 464L242 465L241 464M282 464L283 465L282 464M290 464L291 465L290 464M233 465L234 466L233 465M242 465L243 466L242 465M281 466L282 467L281 466M289 466L290 467L289 466M226 467L227 468L226 467M244 467L245 468L244 467M270 467L271 468L270 467M280 467L281 468L280 467M288 467L289 468L288 467M227 468L228 469L227 468M236 468L237 469L236 468M246 468L247 469L246 468M268.667 468.333L269.333 468.667L268.667 468.333M279 468L280 469L279 468M287 468L288 469L287 468M228 469L229 470L228 469M238 469L239 470L238 469M248.667 469.333L249.333 469.667L248.667 469.333M266 469L267 470L266 469M277.667 469.333L278.333 469.667L277.667 469.333M286 469L287 470L286 469M229 470L230 471L229 470M239 470L240 471L239 470M251.667 470.333L252.333 470.667L251.667 470.333M262 470L262 471L265 471L262 470M276 470L277 471L276 470M285 470L286 471L285 470M230 471L231 472L230 471M240 471L241 472L240 471M254 471L254 472L261 472L254 471M274 471L275 472L274 471M284 471L285 472L284 471M231 472L232 473L231 472M241.667 472.333L242.333 472.667L241.667 472.333M272.667 472.333L273.333 472.667L272.667 472.333M283 472L284 473L283 472M232 473L233 474L232 473M243.667 473.333L244.333 473.667L243.667 473.333M271 473L272 474L271 473M282 473L283 474L282 473M245.667 474.333L246.333 474.667L245.667 474.333M268.667 474.333L269.333 474.667L268.667 474.333M281 474L282 475L281 474M235 475L236 476L235 475M248.667 475.333L249.333 475.667L248.667 475.333M265.667 475.333L266.333 475.667L265.667 475.333M280 475L281 476L280 475M236 476L237 477L236 476M253 476L253 477L263 477L253 476M279 476L280 477L279 476M238 477L239 478L238 477M277 477L278 478L277 477M239 478L240 479L239 478M275 478L276 479L275 478M241 479L242 480L241 479M273.667 479.333L274.333 479.667L273.667 479.333M243 480L244 481L243 480M271 480L272 481L271 480M245.667 481.333L246.333 481.667L245.667 481.333M268.667 481.333L269.333 481.667L268.667 481.333M249 482L249 483L252 483L249 482M263 482L263 483L266 483L263 482M254 483L254 484L261 484L254 483z"/>
</svg>
