<?xml version="1.0" standalone="no"?>
<!DOCTYPE svg PUBLIC "-//W3C//DTD SVG 20010904//EN"
 "http://www.w3.org/TR/2001/REC-SVG-20010904/DTD/svg10.dtd">
<svg version="1.0" xmlns="http://www.w3.org/2000/svg"
 width="500.000000pt" height="500.000000pt" viewBox="0 0 500.000000 500.000000"
 preserveAspectRatio="xMidYMid meet">

<g transform="translate(0.000000,500.000000) scale(0.100000,-0.100000)"
fill="#000000" stroke="none">
<path d="M2592 4749 c-12 -5 -25 -16 -29 -24 -3 -9 -12 -14 -19 -11 -9 3 -17
-7 -23 -32 -5 -20 -17 -65 -26 -100 -56 -220 -141 -391 -260 -523 -80 -88
-108 -128 -138 -196 -44 -100 -53 -159 -38 -248 7 -41 9 -80 5 -86 -4 -8 -3
-9 4 -5 8 5 12 -3 12 -24 0 -17 7 -42 16 -55 19 -29 11 -100 -10 -92 -9 4 -12
-19 -12 -92 1 -53 -3 -98 -9 -101 -27 -15 -151 227 -191 375 -36 134 -30 234
20 362 19 48 34 89 32 90 -6 6 -126 -66 -181 -109 -87 -69 -124 -129 -136
-219 -11 -77 -20 -143 -40 -269 -15 -99 -6 -365 16 -445 9 -33 30 -104 47
-157 19 -61 28 -106 24 -122 -8 -33 -108 -146 -149 -168 -39 -22 -90 -23 -107
-3 -11 13 -9 15 13 15 33 0 54 26 40 48 -23 37 -73 20 -73 -24 0 -19 -7 -26
-31 -31 -40 -8 -47 -28 -21 -63 l21 -28 -19 -71 c-23 -82 -29 -149 -17 -203 7
-34 6 -38 -13 -38 -11 0 -28 -10 -38 -22 -9 -12 -34 -40 -54 -63 -21 -23 -38
-49 -38 -57 0 -8 20 -35 44 -60 52 -54 62 -88 41 -147 -17 -50 -20 -133 -5
-161 9 -17 3 -23 -42 -49 -59 -34 -78 -33 -144 5 l-41 23 -6 -41 c-17 -127 70
-310 186 -394 55 -40 188 -108 230 -118 26 -6 27 -8 27 -77 0 -76 34 -244 52
-255 10 -6 86 69 145 144 14 17 31 32 38 32 25 0 147 -63 152 -79 37 -116 67
-172 152 -285 l44 -59 15 29 c35 71 97 156 122 169 l28 14 6 -43 c16 -107 99
-266 155 -296 16 -8 21 -5 30 21 9 26 8 36 -10 60 -36 51 -35 88 3 144 48 73
101 97 199 93 65 -3 81 -7 113 -31 48 -37 89 -100 89 -138 0 -17 -13 -48 -31
-74 -20 -28 -29 -51 -25 -64 7 -26 -22 -39 -48 -23 -13 8 -26 8 -48 1 -17 -6
-56 -9 -86 -7 -37 2 -55 -1 -55 -9 0 -6 -6 -13 -12 -16 -10 -4 -10 -7 0 -18 9
-10 37 -14 90 -13 71 0 85 4 151 40 112 60 175 161 215 346 4 16 10 28 15 28
17 0 91 -93 116 -146 14 -30 30 -54 35 -54 5 0 30 26 55 57 48 58 85 125 124
225 28 69 39 80 119 107 73 25 82 26 82 7 0 -17 81 -108 122 -137 17 -12 33
-18 38 -13 12 12 50 207 50 255 0 24 -5 39 -12 39 -21 0 5 17 47 30 94 30 240
120 294 182 60 69 118 233 120 341 1 33 -11 34 -52 3 -46 -35 -79 -41 -122
-21 -50 24 -65 57 -58 131 4 42 1 70 -11 98 -22 54 -20 68 15 112 52 66 62 92
49 125 -7 15 -35 50 -63 76 l-52 48 -1 85 c-2 74 -16 146 -38 201 -5 11 -1 18
13 22 12 3 21 13 21 24 0 19 -110 133 -128 133 -20 0 -22 -18 -7 -60 8 -24 13
-45 11 -48 -3 -2 -22 2 -43 8 -52 18 -193 158 -193 193 0 13 16 74 35 133 53
162 79 325 72 454 -4 58 -13 139 -21 180 -8 41 -19 120 -26 175 -13 116 -33
165 -92 222 -54 52 -212 157 -216 143 -2 -5 6 -37 18 -71 11 -34 27 -95 35
-135 17 -90 5 -179 -46 -326 -43 -124 -79 -193 -134 -253 l-45 -50 2 95 c1 69
-2 103 -13 123 -14 25 -13 36 8 120 37 143 44 219 27 286 -27 104 -77 190
-171 293 -130 142 -198 286 -272 572 -17 65 -32 120 -33 121 -2 2 -13 -1 -26
-6z m-176 -750 c17 -51 58 -87 122 -105 69 -20 78 -27 58 -47 -15 -14 -20 -14
-62 0 -25 8 -64 31 -87 49 -23 19 -57 41 -74 49 -36 17 -39 25 -22 58 25 47
49 46 65 -4z m399 0 c50 -34 52 -50 3 -40 -22 5 -38 17 -51 39 -24 40 -11 41
48 1z m115 -145 c6 -14 7 -31 3 -37 -7 -12 -21 16 -22 46 -1 25 8 21 19 -9z
m-670 -104 c4 -67 1 -80 -13 -80 -13 0 -37 60 -37 93 0 20 30 51 40 40 5 -4 9
-28 10 -53z m415 -714 c107 -50 224 -222 301 -441 51 -145 40 -249 -50 -438
-133 -283 -278 -401 -420 -342 -117 49 -284 303 -331 503 -35 147 -1 311 100
480 90 151 160 221 255 255 35 13 98 5 145 -17z m-1152 -1197 c83 -43 156
-108 219 -195 35 -48 46 -51 30 -6 -12 34 -2 55 21 47 21 -9 156 -182 174
-224 10 -23 13 -49 9 -75 -6 -35 -5 -38 9 -26 14 11 21 8 52 -23 19 -21 39
-37 43 -37 15 0 60 -80 65 -117 19 -125 -157 -200 -306 -131 -86 39 -201 121
-247 175 -23 26 -67 77 -97 112 -103 119 -140 196 -165 343 -13 75 -4 119 31
156 27 30 104 30 162 1z m2268 8 c8 -7 24 -26 34 -44 17 -29 18 -40 8 -116
-19 -141 -60 -214 -240 -432 -122 -147 -346 -258 -456 -225 -112 33 -152 108
-111 206 17 41 26 49 89 91 57 38 66 49 63 81 -1 17 10 49 27 78 42 73 146
204 161 204 22 0 26 -19 10 -52 -9 -17 -14 -33 -12 -35 2 -2 37 32 77 77 116
126 200 179 284 179 28 0 57 -5 66 -12z"/>
<path d="M1418 1785 c-6 -7 4 -46 36 -133 19 -51 137 -240 166 -267 17 -16 15
-7 -12 50 -33 71 -47 158 -34 210 8 30 37 33 91 11 19 -8 35 -13 35 -10 0 2
-45 34 -100 70 -94 62 -163 88 -182 69z"/>
<path d="M3667 1780 c-30 -9 -192 -114 -203 -132 -5 -7 -3 -8 5 -3 7 4 34 13
61 20 46 12 49 12 54 -9 17 -63 -5 -166 -54 -252 -38 -69 -25 -62 35 17 75 96
175 301 175 356 0 14 -30 16 -73 3z"/>
</g>
</svg>
